<svg xmlns="http://www.w3.org/2000/svg" width="32" height="32" viewBox="0 0 32 32"><defs><linearGradient id="a" x1="50%" x2="50%" y1="0%" y2="100%"><stop offset="0%" stop-color="#FF3E00"/><stop offset="100%" stop-color="#F0AD4E"/></linearGradient></defs><path fill="url(#a)" d="M25.83 9.07c-1.65-3.21-5.1-5.25-8.83-5.25-3.73 0-7.18 2.04-8.83 5.25L.84 20.93c-1.12 2.17-.96 4.82.42 6.83 1.38 2.01 3.71 3.24 6.24 3.24h17c2.53 0 4.86-1.23 6.24-3.24 1.38-2.01 1.54-4.66.42-6.83L25.83 9.07z"/><path fill="#FFF" d="M22.31 16.51l-4.85 4.85a2 2 0 0 1-2.83 0l-4.85-4.85a2 2 0 1 1 2.83-2.83L16 17.07l3.39-3.39a2 2 0 1 1 2.83 2.83z"/></svg>
